<?xml version="1.0" encoding="UTF-8" standalone="no"?>
<!DOCTYPE svg PUBLIC "-//W3C//DTD SVG 1.1//EN" "http://www.w3.org/Graphics/SVG/1.1/DTD/svg11.dtd">
<svg width="100%" height="100%" viewBox="0 0 800 600" version="1.1" xmlns="http://www.w3.org/2000/svg" xmlns:xlink="http://www.w3.org/1999/xlink" xml:space="preserve" xmlns:serif="http://www.serif.com/" style="fill-rule:evenodd;clip-rule:evenodd;stroke-linejoin:round;stroke-miterlimit:2;">
    <g transform="matrix(1.59021,0,0,1.59021,-202.937,-72.3245)">
        <g transform="matrix(110.288,0,0,110.288,295.547,209)">
            <path d="M-0.014,-0L0.187,-0.72L0.576,-0.72L0.777,-0L0.495,-0L0.472,-0.111L0.291,-0.111L0.268,-0L-0.014,-0ZM0.45,-0.289L0.381,-0.535L0.32,-0.289L0.45,-0.289Z" style="fill:white;fill-rule:nonzero;"/>
        </g>
        <g transform="matrix(110.288,0,0,110.288,379.697,209)">
            <path d="M0.04,-0L0.04,-0.72L0.36,-0.72L0.425,-0.719C0.536,-0.719 0.62,-0.696 0.677,-0.651C0.733,-0.606 0.769,-0.534 0.784,-0.437C0.788,-0.413 0.79,-0.388 0.79,-0.363L0.79,-0.346C0.79,-0.341 0.79,-0.336 0.789,-0.331C0.788,-0.325 0.788,-0.321 0.788,-0.318C0.777,-0.203 0.738,-0.121 0.672,-0.073C0.605,-0.024 0.498,-0 0.351,-0L0.04,-0ZM0.351,-0.166C0.389,-0.166 0.418,-0.175 0.439,-0.195C0.459,-0.214 0.472,-0.245 0.478,-0.29L0.481,-0.32L0.481,-0.372C0.481,-0.437 0.472,-0.485 0.453,-0.514C0.434,-0.543 0.408,-0.558 0.373,-0.558L0.335,-0.558L0.335,-0.166L0.351,-0.166Z" style="fill:white;fill-rule:nonzero;"/>
        </g>
    </g>
    <g transform="matrix(1,0,0,1,200,268.542)">
        <g transform="matrix(110.288,0,0,110.288,56.9569,79.4071)">
            <path d="M0.04,-0L0.04,-0.72L0.598,-0.72L0.598,-0.533L0.342,-0.533L0.342,-0.448L0.598,-0.447L0.598,-0.253L0.342,-0.253L0.342,-0L0.04,-0Z" style="fill:white;fill-rule:nonzero;"/>
        </g>
        <g transform="matrix(110.288,0,0,110.288,122.909,79.4071)">
            <path d="M0.04,-0L0.04,-0.72L0.454,-0.72C0.551,-0.72 0.618,-0.705 0.655,-0.677C0.692,-0.648 0.71,-0.597 0.71,-0.524C0.71,-0.448 0.672,-0.397 0.596,-0.37L0.577,-0.364C0.582,-0.364 0.588,-0.363 0.595,-0.36C0.624,-0.352 0.646,-0.341 0.662,-0.326C0.677,-0.311 0.689,-0.289 0.696,-0.262L0.702,-0.238L0.707,-0.203L0.725,-0.052C0.726,-0.047 0.727,-0.042 0.729,-0.035C0.731,-0.028 0.734,-0.016 0.739,-0L0.445,-0L0.437,-0.03C0.428,-0.07 0.423,-0.103 0.42,-0.129L0.417,-0.167L0.415,-0.19C0.412,-0.216 0.406,-0.234 0.398,-0.243C0.389,-0.252 0.375,-0.256 0.354,-0.256L0.344,-0.256L0.328,-0.255L0.328,-0L0.04,-0ZM0.321,-0.429L0.369,-0.429C0.391,-0.429 0.408,-0.434 0.421,-0.445C0.434,-0.456 0.44,-0.469 0.44,-0.486C0.44,-0.526 0.424,-0.548 0.391,-0.552L0.379,-0.554L0.321,-0.554L0.321,-0.429Z" style="fill:white;fill-rule:nonzero;"/>
        </g>
        <g transform="matrix(110.288,0,0,110.288,205.184,79.4071)">
            <path d="M0.04,-0L0.04,-0.72L0.601,-0.72L0.601,-0.533L0.328,-0.533L0.328,-0.46L0.59,-0.46L0.59,-0.266L0.328,-0.266L0.328,-0.187L0.603,-0.187L0.603,-0L0.04,-0Z" style="fill:white;fill-rule:nonzero;"/>
        </g>
        <g transform="matrix(110.288,0,0,110.288,274.113,79.4071)">
            <path d="M0.04,-0L0.04,-0.72L0.601,-0.72L0.601,-0.533L0.328,-0.533L0.328,-0.46L0.59,-0.46L0.59,-0.266L0.328,-0.266L0.328,-0.187L0.603,-0.187L0.603,-0L0.04,-0Z" style="fill:white;fill-rule:nonzero;"/>
        </g>
    </g>
</svg>
