<?xml version="1.0" encoding="UTF-8" ?>
<!DOCTYPE svg PUBLIC "-//W3C//DTD SVG 1.1//EN" "http://www.w3.org/Graphics/SVG/1.1/DTD/svg11.dtd">
<svg width="960pt" height="540pt" viewBox="0 0 960 540" version="1.1" xmlns="http://www.w3.org/2000/svg">
<g id="#000000ff">
<path fill="#000000" opacity="1.00" d=" M 500.23 273.04 C 499.68 271.10 502.08 270.72 503.19 269.83 C 509.90 281.61 516.97 293.62 519.27 307.18 C 519.81 310.12 520.61 313.30 523.29 315.03 C 524.56 318.12 525.23 321.43 526.64 324.47 C 528.53 326.71 531.69 328.07 532.45 331.14 C 534.29 338.23 537.49 345.07 542.66 350.36 C 546.11 353.96 548.58 358.42 548.75 363.51 C 549.92 364.44 551.35 365.15 552.26 366.37 C 553.56 370.13 554.36 374.19 556.86 377.41 C 558.74 379.76 560.78 381.99 562.40 384.54 C 564.59 385.02 566.85 385.31 568.98 386.09 C 571.90 387.19 573.86 389.74 576.03 391.85 C 580.30 391.70 583.98 393.85 586.93 396.76 C 587.61 396.74 588.99 396.71 589.68 396.69 C 592.82 393.17 596.57 390.24 600.80 388.13 C 600.74 386.74 600.74 385.34 600.56 383.97 C 599.42 382.13 597.65 380.79 596.58 378.91 C 595.81 376.81 596.33 374.56 596.75 372.45 C 598.06 366.72 598.00 360.81 598.70 355.00 C 599.06 351.85 601.18 349.31 602.08 346.33 C 602.87 343.35 602.21 339.89 604.24 337.34 C 606.27 334.53 608.53 331.91 610.55 329.09 C 610.60 327.18 610.25 325.07 611.55 323.47 C 613.61 320.54 614.53 316.51 617.98 314.82 C 620.35 313.34 623.24 313.41 625.94 313.25 C 629.86 313.19 633.92 312.93 637.70 314.21 C 640.52 315.07 642.19 317.70 644.56 319.30 C 647.81 321.07 652.03 321.48 654.28 324.75 C 658.11 330.18 662.52 335.99 662.52 342.95 C 662.64 349.06 662.16 355.25 660.44 361.13 C 658.76 366.93 653.62 370.62 650.64 375.66 C 648.51 379.35 645.22 382.12 642.65 385.46 C 640.32 389.94 646.99 390.32 648.64 393.32 C 650.87 398.00 651.97 403.12 653.80 407.97 C 662.94 411.51 671.62 416.11 679.91 421.30 C 685.30 425.13 691.00 428.90 694.97 434.27 C 697.16 443.25 698.90 452.40 700.16 461.58 C 704.57 453.30 710.36 445.27 718.88 440.84 C 728.11 436.18 738.74 436.15 748.83 436.20 C 750.70 434.27 752.73 432.27 755.44 431.63 C 764.29 429.58 773.46 430.84 782.31 432.28 C 781.88 431.77 781.03 430.75 780.60 430.24 C 780.91 429.00 781.22 427.75 781.53 426.51 C 781.74 426.30 782.17 425.88 782.38 425.67 C 781.90 423.92 781.57 422.15 781.41 420.36 C 782.06 420.21 783.36 419.90 784.01 419.75 C 783.50 419.25 782.48 418.25 781.97 417.75 C 783.08 417.25 784.20 416.74 785.33 416.25 C 785.47 415.75 785.75 414.75 785.89 414.26 C 786.37 412.65 786.80 411.04 787.25 409.44 C 786.74 409.36 785.71 409.19 785.19 409.11 C 785.39 406.89 785.57 404.67 785.75 402.45 C 782.92 405.08 780.33 407.94 777.51 410.56 C 769.43 417.25 758.57 420.99 748.09 419.22 C 745.67 418.22 744.69 415.66 743.76 413.44 C 756.35 409.60 768.09 403.62 780.19 398.56 C 766.49 396.22 752.56 395.34 738.96 392.41 C 739.37 389.79 739.92 386.66 742.79 385.64 C 754.89 380.38 768.03 385.27 780.02 388.37 C 779.22 386.53 778.42 384.70 777.60 382.88 C 778.28 380.98 778.27 378.47 780.25 377.37 C 783.85 374.92 786.85 371.67 790.92 369.94 C 798.79 360.43 805.71 349.46 816.74 343.23 C 818.09 344.53 819.44 345.82 820.82 347.10 C 820.11 348.14 819.42 349.19 818.73 350.24 C 822.17 353.53 825.98 356.46 830.09 358.88 C 832.75 357.44 834.87 355.22 837.10 353.22 C 838.65 354.39 840.20 355.57 841.75 356.76 C 841.61 358.67 840.43 361.09 842.45 362.40 C 845.85 365.33 849.43 368.15 851.84 372.03 C 844.37 379.82 837.55 388.25 829.49 395.45 C 824.64 399.20 818.23 399.43 812.42 400.25 C 814.27 401.91 815.94 403.84 816.12 406.45 C 809.46 407.20 802.82 405.49 796.87 402.57 C 796.24 405.47 797.43 410.32 793.46 411.03 C 793.82 413.38 794.22 415.74 794.50 418.11 C 795.33 418.72 796.17 419.34 797.02 419.96 C 796.24 420.15 794.68 420.54 793.90 420.74 C 794.82 421.18 795.75 421.63 796.69 422.09 C 796.27 422.47 795.42 423.24 795.00 423.62 C 795.25 424.23 795.73 425.45 795.97 426.06 C 794.88 426.36 793.80 426.68 792.74 427.00 C 793.89 427.34 795.06 427.69 796.24 428.05 C 795.69 428.52 794.61 429.47 794.06 429.95 C 794.49 430.50 795.34 431.59 795.77 432.13 C 794.52 432.40 793.37 432.69 792.17 432.96 C 794.28 434.33 796.28 436.32 799.00 436.25 C 810.39 436.98 823.25 439.95 830.21 449.85 C 838.42 459.35 842.32 471.55 844.47 483.71 C 846.06 483.67 847.66 483.64 849.27 483.62 C 850.43 477.45 852.33 471.46 854.45 465.57 C 858.29 455.45 864.94 445.92 874.70 440.78 C 883.10 436.65 892.72 436.06 901.94 436.25 C 921.29 436.48 940.66 435.84 960.00 436.61 L 960.00 540.00 L 0.00 540.00 L 0.00 436.26 C 6.35 436.28 12.70 436.22 19.05 436.26 C 28.43 436.40 38.08 438.64 45.79 444.18 C 51.70 449.48 56.17 456.24 59.62 463.35 C 62.28 469.91 64.23 476.74 65.63 483.68 C 67.13 483.66 68.64 483.64 70.14 483.63 C 72.75 470.61 77.35 457.52 86.76 447.79 C 93.75 439.16 105.46 436.86 115.99 436.31 C 135.32 436.23 154.66 436.33 174.00 436.26 C 182.98 436.30 192.29 438.14 199.96 443.00 C 213.12 452.33 218.11 468.66 221.38 483.68 C 222.88 483.66 224.38 483.65 225.89 483.64 C 228.36 471.21 232.62 458.73 241.23 449.15 C 248.37 439.77 260.75 436.71 271.99 436.28 C 290.65 436.23 309.32 436.31 327.98 436.25 C 335.12 436.11 342.35 437.02 349.02 439.67 C 355.38 441.68 360.32 446.49 364.43 451.56 C 371.48 460.85 374.41 472.36 377.17 483.47 C 378.76 483.67 380.38 483.70 381.99 483.78 C 384.08 468.83 390.44 454.06 402.04 444.06 C 410.92 437.43 422.48 436.07 433.25 436.23 C 432.59 430.79 432.47 425.30 432.20 419.83 C 430.92 418.96 429.66 418.08 428.40 417.21 C 428.80 415.57 429.21 413.95 429.59 412.32 C 426.61 415.78 423.63 419.50 422.31 423.94 C 421.80 425.21 421.65 426.66 420.82 427.78 C 419.67 428.96 417.82 428.46 416.37 428.76 C 415.56 429.35 414.75 429.96 413.96 430.57 C 412.95 429.91 411.95 429.25 410.96 428.60 C 411.22 427.32 411.48 426.05 411.76 424.79 C 414.66 422.57 417.30 419.91 418.55 416.41 C 420.92 410.53 425.18 405.79 429.40 401.19 C 428.77 398.30 428.43 395.36 428.33 392.42 C 430.92 391.85 433.55 391.52 436.19 391.36 C 438.70 389.87 441.64 388.84 443.56 386.56 C 446.29 381.93 445.59 375.89 442.26 371.74 C 442.59 369.29 443.67 367.08 445.16 365.14 C 445.17 363.81 445.17 362.48 445.18 361.16 C 442.34 359.36 439.52 357.31 437.85 354.31 C 432.90 346.52 434.81 334.91 442.61 329.68 C 444.81 328.54 445.47 326.29 445.56 323.97 C 450.75 322.31 456.25 322.32 461.50 323.70 C 461.53 325.09 461.56 326.47 461.60 327.86 C 465.94 330.36 469.48 334.28 470.83 339.18 C 473.58 347.47 469.35 357.09 461.66 361.04 C 461.62 368.04 461.32 375.05 461.75 382.04 C 461.89 386.19 465.48 388.96 469.16 390.07 C 469.55 390.44 470.34 391.17 470.73 391.53 C 473.69 391.42 476.67 391.56 479.54 392.38 C 479.30 395.06 479.00 397.75 478.63 400.43 C 482.18 404.82 486.46 408.82 488.64 414.15 C 489.77 416.67 490.12 419.69 492.37 421.54 C 494.42 423.31 495.93 425.55 496.70 428.16 C 495.80 429.01 494.92 429.86 494.04 430.72 C 493.09 430.06 492.16 429.41 491.22 428.77 C 489.80 428.56 488.31 428.63 486.98 428.05 C 485.23 426.56 485.10 424.09 484.50 422.04 C 483.62 417.68 480.97 413.99 478.00 410.80 C 478.42 413.02 478.91 415.22 479.46 417.41 C 478.14 418.28 476.81 419.13 475.48 419.98 C 476.08 425.40 475.73 430.86 475.12 436.27 C 487.57 435.93 501.00 436.06 511.77 443.22 C 524.57 452.66 529.67 468.69 532.77 483.61 C 534.44 483.63 536.12 483.65 537.81 483.68 C 538.68 477.08 542.44 470.88 541.20 464.09 C 540.20 456.44 540.33 448.64 538.76 441.09 C 536.57 436.16 533.28 431.77 531.35 426.70 C 525.95 413.00 521.25 398.97 518.10 384.58 C 516.14 379.17 512.38 374.61 510.50 369.15 C 508.59 364.68 508.54 359.79 508.32 355.03 C 508.22 350.39 505.64 346.31 504.94 341.79 C 504.64 338.50 505.58 335.26 505.57 331.99 C 505.11 328.25 502.63 324.98 502.57 321.17 C 503.33 319.68 504.48 318.43 505.50 317.12 C 504.98 315.69 504.46 314.27 503.93 312.86 C 499.28 311.49 499.33 305.79 495.57 303.39 C 492.51 300.86 490.10 296.13 492.56 292.42 C 495.41 288.25 500.40 286.61 504.59 284.20 C 503.38 280.39 501.06 276.97 500.23 273.04 M 812.10 359.28 C 813.89 361.00 815.86 362.54 817.95 363.90 C 818.87 362.63 819.80 361.36 820.74 360.10 C 818.84 358.76 816.95 357.41 815.07 356.06 C 814.07 357.13 813.08 358.21 812.10 359.28 M 822.95 361.39 C 821.96 362.59 820.93 363.76 820.07 365.06 C 820.03 366.66 821.59 366.66 822.76 366.96 C 823.77 365.92 824.80 364.90 825.84 363.89 C 824.85 363.06 823.91 362.21 822.95 361.39 M 806.02 366.79 C 807.87 368.15 809.65 369.60 811.35 371.16 C 813.11 369.80 814.64 368.17 816.11 366.50 C 814.49 364.85 812.80 363.21 810.73 362.14 C 808.33 362.48 807.43 365.16 806.02 366.79 M 817.61 367.82 C 816.27 369.75 814.72 371.63 814.14 373.97 C 816.22 372.62 818.19 371.12 820.19 369.65 C 819.31 369.05 818.45 368.44 817.61 367.82 M 801.17 373.15 C 803.35 374.02 805.46 375.12 807.73 375.81 C 808.91 375.42 809.41 374.21 810.07 373.28 C 808.16 371.73 806.19 370.27 804.13 368.96 C 803.14 370.36 802.16 371.76 801.17 373.15 M 832.71 369.10 C 834.17 370.76 835.72 372.34 837.27 373.92 C 838.13 373.52 838.99 373.11 839.86 372.71 C 837.70 371.10 835.51 369.30 832.71 369.10 M 829.58 372.82 C 831.61 374.37 833.61 376.09 836.17 376.67 C 834.77 374.68 833.20 372.80 831.30 371.28 C 830.71 371.78 830.13 372.29 829.58 372.82 M 842.50 373.50 C 841.35 374.37 840.34 375.38 839.31 376.37 C 840.11 377.14 840.94 377.92 841.77 378.69 C 842.85 377.32 843.99 375.99 845.16 374.70 C 844.27 374.27 843.41 373.82 842.50 373.50 M 826.01 375.37 C 827.70 377.41 829.22 380.28 832.14 380.58 C 832.32 379.96 832.67 378.72 832.85 378.11 C 830.67 376.95 828.58 375.38 826.01 375.37 M 822.99 377.97 C 823.18 381.25 826.88 382.26 829.27 383.59 C 828.21 380.91 826.10 378.15 822.99 377.97 M 835.49 380.15 C 834.55 381.15 833.62 382.16 832.70 383.17 C 833.45 384.10 834.19 385.06 834.97 386.01 C 836.31 384.62 837.62 383.19 838.90 381.74 C 837.74 381.20 836.62 380.67 835.49 380.15 M 819.86 381.01 C 820.39 383.76 823.22 384.91 825.11 386.62 C 825.33 386.22 825.76 385.41 825.98 385.01 C 823.95 383.65 821.94 382.26 819.86 381.01 M 826.36 388.02 C 827.18 389.27 828.01 390.52 828.86 391.77 C 829.99 390.81 831.10 389.84 832.24 388.88 C 830.33 387.94 828.20 385.71 826.36 388.02 M 816.06 396.84 C 819.68 396.69 823.45 396.07 826.43 393.84 C 824.35 393.26 822.23 391.77 820.02 392.29 C 818.34 393.43 817.35 395.32 816.06 396.84 Z" />
</g>
</svg>
